<svg width="77" height="70" viewBox="0 0 77 70" fill="none" xmlns="http://www.w3.org/2000/svg">
<rect x="0.635162" width="75.6301" height="70" rx="8" fill="#2B2B2B"/>
<g clip-path="url(#clip0_512_540)">
<path d="M52.2653 23.1644L49.7481 51.3632L38.4333 54.5L27.1497 51.3676L24.6352 23.1644H52.2653Z" fill="#B264C6"/>
<path d="M47.5931 49.5676L49.7442 25.4704H38.4502V52.1023L47.5931 49.5676Z" fill="#E481FD"/>
<path d="M30.3996 35.9306L30.7096 39.3896H38.4502V35.9306H30.3996Z" fill="#EBEBEB"/>
<path d="M38.4502 28.9295H38.4382H29.7767L30.0911 32.3885H38.4502V28.9295Z" fill="#EBEBEB"/>
<path d="M38.4502 48.5128V44.914L38.4351 44.918L34.5828 43.8778L34.3365 41.1191H32.4646H30.8642L31.3488 46.5502L38.4343 48.5172L38.4502 48.5128Z" fill="#EBEBEB"/>
<path d="M31.1377 15.5H35.3272V17.252H32.8897V19.0039H35.3272V20.7559H31.1377V15.5Z" fill="white"/>
<path d="M36.1651 15.5H40.3545V17.0234H37.917V17.3281H40.3545V20.832H36.1651V19.2324H38.6026V18.9277H36.1651V15.5Z" fill="white"/>
<path d="M41.1924 15.5H45.3819V17.0234H42.9444V17.3281H45.3819V20.832H41.1924V19.2324H43.6299V18.9277H41.1924V15.5Z" fill="white"/>
<path d="M42.6976 39.3896L42.2961 43.8756L38.4383 44.9169V48.5156L45.5294 46.5502L45.5814 45.9659L46.3943 36.8594L46.4787 35.9306L47.1031 28.9295H38.4383V32.3885H43.3123L42.9976 35.9306H38.4383V39.3896H42.6976Z" fill="white"/>
</g>
<defs>
<clipPath id="clip0_512_540">
<rect width="27.6301" height="39" fill="white" transform="translate(24.6352 15.5)"/>
</clipPath>
</defs>
</svg>
