<svg width="128" height="70" viewBox="0 0 128 70" fill="none" xmlns="http://www.w3.org/2000/svg">
<rect x="0.137207" width="127.674" height="70" rx="8" fill="#2B2B2B"/>
<g clip-path="url(#clip0_512_600)">
<path d="M48.8552 43.89V26.459H49.8017V29.2013C49.9134 29.0798 50.0161 28.9504 50.1093 28.8141C50.4962 28.0116 51.1039 27.3359 51.8611 26.8663C52.6183 26.3967 53.4936 26.1526 54.3846 26.1626C56.5405 26.0988 58.2918 26.8972 59.3243 28.8141C59.9786 30.005 60.3386 31.335 60.3743 32.6932C60.4101 34.0514 60.1205 35.3986 59.5299 36.6222C58.5738 38.7734 56.2027 39.841 53.6659 39.449C52.8767 39.3815 52.1169 39.1175 51.4559 38.681C50.7948 38.2446 50.2536 37.6497 49.8814 36.9504V43.8836L48.8552 43.89ZM49.8017 32.6257C49.8846 33.475 49.9165 34.0806 50.0137 34.6717C50.3865 37.003 51.7665 38.3861 53.9272 38.6379C54.9429 38.8046 55.9849 38.6139 56.8757 38.0985C57.7666 37.583 58.4511 36.7747 58.8128 35.8111C59.2284 34.8201 59.4285 33.752 59.3996 32.6778C59.3708 31.6036 59.1137 30.5478 58.6455 29.5806C58.2595 28.7171 57.6029 28.0027 56.775 27.5454C55.947 27.088 54.9928 26.9125 54.0563 27.0454C53.1778 27.1099 52.3413 27.4463 51.6628 28.008C50.9843 28.5697 50.4976 29.3288 50.2702 30.1797C50.067 30.9854 49.9106 31.802 49.8017 32.6257Z" fill="white"/>
<path d="M79.6746 35C79.5311 36.2274 78.9467 37.3609 78.0302 38.1898C77.1137 39.0187 75.9273 39.4865 74.6918 39.5064C70.7272 39.7055 68.8676 37.0731 68.5712 34.0344C68.3659 32.3847 68.6339 30.7107 69.3441 29.2077C69.8384 28.1764 70.648 27.3292 71.6558 26.7886C72.6636 26.248 73.8173 26.0422 74.9499 26.2008C76.0265 26.2924 77.0471 26.7202 77.8672 27.4237C78.6873 28.1271 79.2655 29.0707 79.52 30.1208C79.7213 31.0775 79.8697 32.0446 79.9646 33.0177H69.5512C69.3584 35.7728 70.8387 37.9878 72.9373 38.5216C75.5506 39.159 77.7831 38.0324 78.5942 35.5482C78.7663 34.9044 79.0945 34.8136 79.6746 35ZM69.5512 32.1317H78.8571C78.7997 29.1966 76.9704 27.0725 74.4926 27.0326C71.6865 26.9928 69.6659 29.0404 69.5512 32.1317Z" fill="white"/>
<path d="M81.5931 35.059H82.5062C82.5404 35.7315 82.7593 36.3816 83.1388 36.9379C83.5183 37.4942 84.0437 37.9352 84.6574 38.2124C85.428 38.5592 86.267 38.7277 87.1117 38.7054C87.9565 38.6831 88.7854 38.4704 89.5366 38.0834C89.9459 37.8989 90.2887 37.5932 90.5186 37.2076C90.7486 36.8221 90.8547 36.3752 90.8225 35.9274C90.8466 35.4953 90.7289 35.0673 90.4873 34.7083C90.2456 34.3493 89.8934 34.0791 89.484 33.9387C88.4801 33.5659 87.4125 33.3587 86.3879 33.0305C85.3229 32.7277 84.2817 32.3468 83.2726 31.8911C81.625 31.0864 81.5198 27.9521 83.389 26.9609C84.3446 26.4214 85.4201 26.1298 86.5173 26.1129C87.6146 26.0959 88.6986 26.354 89.6704 26.8637C90.2591 27.1894 90.7347 27.6867 91.0338 28.2893C91.333 28.8919 91.4416 29.5713 91.3452 30.2371H90.5596C90.5596 30.1989 90.4879 30.167 90.4879 30.1272C90.3923 27.6238 88.2937 26.851 86.0405 27.0709C85.368 27.1536 84.7147 27.3514 84.1092 27.6557C83.7569 27.8347 83.4634 28.1114 83.2639 28.4526C83.0644 28.7938 82.9673 29.1852 82.9841 29.58C83.0009 29.9749 83.1309 30.3567 83.3587 30.6797C83.5864 31.0027 83.9023 31.2534 84.2686 31.4019C85.2597 31.7637 86.2971 31.9947 87.3137 32.2783C88.1311 32.503 88.9805 32.6512 89.7724 32.9157C90.3312 33.0988 90.8212 33.4474 91.1775 33.9152C91.5338 34.383 91.7395 34.948 91.7675 35.5354C91.8652 36.1791 91.7573 36.8372 91.4592 37.4161C91.1611 37.9949 90.6879 38.4648 90.1071 38.759C87.9575 39.9764 84.4168 39.6545 82.8392 38.1216C82.4398 37.7185 82.1241 37.2404 81.9102 36.7148C81.6964 36.1891 81.5886 35.6264 81.5931 35.059Z" fill="white"/>
<path d="M103.362 30.2371H102.506C102.495 30.1296 102.476 30.023 102.449 29.9184C102.435 29.2767 102.201 28.6593 101.786 28.1695C101.371 27.6798 100.801 27.3476 100.17 27.2286C98.9801 26.8866 97.7105 26.9476 96.559 27.4023C96.103 27.5321 95.7014 27.8061 95.4141 28.1832C95.1269 28.5604 94.9695 29.0205 94.9656 29.4945C94.9493 29.9595 95.094 30.4157 95.3754 30.7862C95.6567 31.1567 96.0574 31.4187 96.5096 31.5278C97.7972 31.9278 99.1166 32.1652 100.423 32.5317C100.847 32.6337 101.264 32.7609 101.673 32.9125C102.282 33.1304 102.812 33.5273 103.193 34.0512C103.573 34.5751 103.787 35.2017 103.806 35.8489C103.825 36.4962 103.648 37.1341 103.298 37.6792C102.948 38.2243 102.442 38.6512 101.846 38.904C100.938 39.3168 99.9537 39.5353 98.9563 39.5454C97.9588 39.5556 96.9702 39.3572 96.0539 38.963C95.3003 38.6379 94.6643 38.0898 94.2315 37.3924C93.7988 36.695 93.5901 35.8818 93.6334 35.0621H94.47C94.6246 35.8092 94.959 36.5072 95.4443 37.0958C95.9296 37.6844 96.551 38.1458 97.2549 38.4399C97.9587 38.7341 98.7237 38.8522 99.4835 38.7839C100.243 38.7157 100.975 38.4632 101.615 38.0483C102.005 37.8466 102.33 37.5372 102.549 37.1568C102.769 36.7763 102.875 36.3408 102.855 35.9019C102.875 35.4696 102.753 35.0428 102.508 34.6861C102.263 34.3295 101.908 34.0626 101.497 33.926C100.493 33.5515 99.4257 33.3523 98.4011 33.0241C97.3299 32.7264 96.2823 32.3498 95.2667 31.8975C93.6573 31.1008 93.5282 27.9967 95.3623 27.0055C96.3304 26.4437 97.4273 26.142 98.5464 26.1298C99.6656 26.1175 100.769 26.395 101.749 26.9354C102.309 27.2702 102.759 27.7606 103.046 28.3468C103.332 28.9329 103.442 29.5897 103.362 30.2371Z" fill="white"/>
<path d="M47.2904 39.1845C46.9535 39.3124 46.5814 39.3123 46.2446 39.1843C45.9077 39.0562 45.6295 38.8091 45.4627 38.4897C44.4126 36.9122 43.2589 35.4191 42.1435 33.8846L41.6654 33.2472C40.3381 35.0223 39.0123 36.7289 37.8028 38.5056C37.645 38.8108 37.3817 39.0482 37.0619 39.1737C36.7421 39.2991 36.3876 39.3041 36.0644 39.1877L41.028 32.503L36.407 26.4717C36.7396 26.3507 37.1037 26.348 37.4381 26.4641C37.7724 26.5802 38.0566 26.808 38.2426 27.1091C39.3166 28.6803 40.5086 30.1797 41.6925 31.77C42.8828 30.1925 44.0604 28.6866 45.1615 27.1282C45.3212 26.8291 45.5851 26.599 45.9032 26.4815C46.2213 26.3641 46.5714 26.3674 46.8872 26.4908L45.0914 28.8731C44.2867 29.9343 43.4979 31.0036 42.6582 32.0393C42.5942 32.0952 42.5421 32.1633 42.5049 32.2395C42.4677 32.3158 42.446 32.3988 42.4413 32.4835C42.4365 32.5683 42.4488 32.6531 42.4772 32.7331C42.5057 32.8131 42.5499 32.8865 42.6072 32.9492C42.6231 32.9667 42.6406 32.9827 42.6582 32.9986C44.1943 35.0398 45.7208 37.0859 47.2904 39.1845Z" fill="#E481FD"/>
<path d="M68.4167 26.408V27.3083C67.1826 27.2274 65.9669 27.6396 65.0366 28.4544C64.1062 29.2691 63.5372 30.4198 63.4546 31.6537C63.444 31.8102 63.4413 31.9671 63.4466 32.1238V39.2036H62.5272V26.4558H63.4275V29.0691C64.5413 27.1665 66.2607 26.459 68.4167 26.408Z" fill="white"/>
<path d="M24.1372 32.4206C24.2727 31.7832 24.3555 31.0741 24.5419 30.4176C25.6574 26.4594 30.194 24.8117 33.3156 27.2641C35.1449 28.6982 35.6007 30.7331 35.5114 33.0245H25.2128C25.0455 37.1181 27.9998 39.5912 31.7779 38.3292C32.3907 38.1098 32.9392 37.7413 33.374 37.257C33.8088 36.7726 34.1162 36.1877 34.2685 35.5549C34.4677 34.9175 34.7896 34.8012 35.4015 34.9877C35.3019 35.7725 35.0254 36.5245 34.5928 37.187C34.1603 37.8495 33.583 38.4051 32.9045 38.812C31.7845 39.4234 30.5 39.6655 29.2343 39.5035C27.9687 39.3415 26.7865 38.7839 25.8566 37.9101C24.9358 36.8765 24.3794 35.5694 24.2727 34.1893C24.2518 33.973 24.2086 33.7594 24.1436 33.5519C24.1372 33.1583 24.1372 32.7839 24.1372 32.4206ZM25.2255 32.1433H34.5394C34.482 29.1763 32.6081 27.0713 30.1111 27.0521C27.3305 27.0123 25.3403 29.0727 25.2192 32.1306L25.2255 32.1433Z" fill="white"/>
</g>
<defs>
<clipPath id="clip0_512_600">
<rect width="79.6737" height="17.78" fill="white" transform="translate(24.1372 26.11)"/>
</clipPath>
</defs>
</svg>
