<svg width="15" height="15" viewBox="0 0 15 15" fill="none" xmlns="http://www.w3.org/2000/svg">
<path fill-rule="evenodd" clip-rule="evenodd" d="M7.5 0.185028C3.35625 0.185028 0 3.54128 0 7.68503C0 11.0038 2.14687 13.8069 5.12812 14.8007C5.50312 14.8663 5.64375 14.6413 5.64375 14.4444C5.64375 14.2663 5.63438 13.6757 5.63438 13.0475C3.75 13.3944 3.2625 12.5882 3.1125 12.1663C3.02813 11.9507 2.6625 11.285 2.34375 11.1069C2.08125 10.9663 1.70625 10.6194 2.33437 10.61C2.925 10.6007 3.34687 11.1538 3.4875 11.3788C4.1625 12.5132 5.24063 12.1944 5.67188 11.9975C5.7375 11.51 5.93437 11.1819 6.15 10.9944C4.48125 10.8069 2.7375 10.16 2.7375 7.29128C2.7375 6.47565 3.02813 5.80065 3.50625 5.27565C3.43125 5.08815 3.16875 4.3194 3.58125 3.28815C3.58125 3.28815 4.20937 3.09128 5.64375 4.0569C6.24375 3.88815 6.88125 3.80378 7.51875 3.80378C8.15625 3.80378 8.79375 3.88815 9.39375 4.0569C10.8281 3.0819 11.4563 3.28815 11.4563 3.28815C11.8688 4.3194 11.6062 5.08815 11.5312 5.27565C12.0094 5.80065 12.3 6.46628 12.3 7.29128C12.3 10.1694 10.5469 10.8069 8.87813 10.9944C9.15 11.2288 9.38438 11.6788 9.38438 12.3819C9.38438 13.385 9.375 14.1913 9.375 14.4444C9.375 14.6413 9.51562 14.8757 9.89062 14.8007C11.3795 14.298 12.6733 13.3411 13.5898 12.0647C14.5064 10.7882 14.9996 9.25647 15 7.68503C15 3.54128 11.6438 0.185028 7.5 0.185028Z" fill="#EFEFEF"/>
</svg>
