<svg width="76" height="70" viewBox="0 0 76 70" fill="none" xmlns="http://www.w3.org/2000/svg">
<rect width="75.6352" height="70" rx="8" fill="#2B2B2B"/>
<path d="M26.5746 15.5H28.3266V17.2367H29.9414V15.5H31.6934V20.7559H29.9414V19.0039H28.3418V20.7559H26.5746M34.009 17.252H32.4627V15.5H37.3149V17.252H35.7609V20.7559H34.009M38.0842 15.5H39.9199L41.0473 17.351L42.1746 15.5H44.0104V20.7559H42.2584V18.1508L41.032 20.0398L39.8057 18.1508V20.7559H38.0842M44.8787 15.5H46.6307V19.0191H49.1139V20.7559H44.8787" fill="white"/>
<path d="M26.5137 51.377L24 23.1629H51.6352L49.1215 51.3617L37.7947 54.5" fill="#B264C6"/>
<path d="M37.8176 52.1006V25.4785H49.1139L46.9582 49.5488" fill="#E481FD"/>
<path d="M29.134 28.9291H37.8176V32.3873H32.9274L33.2473 35.9293H37.8176V39.3799H30.0785M30.2309 41.1166H33.7043L33.9481 43.8816L37.8176 44.9176V48.5281L30.7184 46.5477" fill="#EBEBEB"/>
<path d="M46.4707 28.9291H37.8023V32.3873H46.1508M45.8385 35.9293H37.8023V39.3875H42.068L41.6643 43.8816L37.8023 44.9176V48.5129L44.8863 46.5477" fill="white"/>
</svg>
