<svg width="80" height="70" viewBox="0 0 80 70" fill="none" xmlns="http://www.w3.org/2000/svg">
<rect x="0.265289" width="79" height="70" rx="8" fill="#2B2B2B"/>
<g clip-path="url(#clip0_512_553)">
<path d="M55.2653 19.5H24.2653V50.5H55.2653V19.5Z" fill="#E481FD"/>
<path d="M45.0894 43.7189C45.7139 44.7384 46.5262 45.4878 47.9631 45.4878C49.1701 45.4878 49.9412 44.8846 49.9412 44.051C49.9412 43.0521 49.1489 42.6983 47.8204 42.1172L47.0921 41.8047C44.99 40.9092 43.5935 39.7873 43.5935 37.4155C43.5935 35.2308 45.2582 33.5676 47.8597 33.5676C49.7119 33.5676 51.0434 34.2122 52.0029 35.9L49.7345 37.3565C49.2351 36.4609 48.6962 36.1081 47.8597 36.1081C47.0065 36.1081 46.4657 36.6494 46.4657 37.3565C46.4657 38.2304 47.007 38.5842 48.2568 39.1255L48.9851 39.4374C51.4602 40.4988 52.8576 41.5808 52.8576 44.0136C52.8576 46.6363 50.7974 48.0731 48.0305 48.0731C45.3251 48.0731 43.5773 46.7839 42.7221 45.0942L45.0894 43.7189ZM34.7989 43.9713C35.2565 44.7832 35.6728 45.4696 36.6737 45.4696C37.6307 45.4696 38.2345 45.0952 38.2345 43.6392V33.7339H41.1475V43.6785C41.1475 46.6949 39.379 48.0677 36.7977 48.0677C34.4653 48.0677 33.1146 46.8607 32.4276 45.4069L34.7989 43.9713Z" fill="black"/>
</g>
<defs>
<clipPath id="clip0_512_553">
<rect width="31" height="31" fill="white" transform="translate(24.2653 19.5)"/>
</clipPath>
</defs>
</svg>
