<svg width="14" height="15" viewBox="0 0 14 15" fill="none" xmlns="http://www.w3.org/2000/svg">
<path d="M14 1.52941V13.4706C14 13.7436 13.8915 14.0054 13.6985 14.1985C13.5054 14.3915 13.2436 14.5 12.9706 14.5H1.02941C0.756395 14.5 0.49456 14.3915 0.301508 14.1985C0.108456 14.0054 0 13.7436 0 13.4706L0 1.52941C0 1.25639 0.108456 0.99456 0.301508 0.801508C0.49456 0.608456 0.756395 0.5 1.02941 0.5L12.9706 0.5C13.2436 0.5 13.5054 0.608456 13.6985 0.801508C13.8915 0.99456 14 1.25639 14 1.52941ZM4.11765 5.85294H2.05882V12.4412H4.11765V5.85294ZM4.30294 3.58824C4.30403 3.4325 4.27443 3.27808 4.21583 3.13379C4.15723 2.98949 4.07079 2.85815 3.96144 2.74727C3.85208 2.63638 3.72196 2.54813 3.57849 2.48753C3.43502 2.42694 3.28103 2.3952 3.12529 2.39412H3.08824C2.77154 2.39412 2.46781 2.51993 2.24387 2.74387C2.01993 2.96781 1.89412 3.27154 1.89412 3.58824C1.89412 3.90494 2.01993 4.20866 2.24387 4.4326C2.46781 4.65654 2.77154 4.78235 3.08824 4.78235C3.24398 4.78618 3.39895 4.75929 3.5443 4.70321C3.68965 4.64713 3.82252 4.56295 3.93532 4.4555C4.04813 4.34805 4.13866 4.21942 4.20173 4.07697C4.26481 3.93452 4.2992 3.78104 4.30294 3.62529V3.58824ZM11.9412 8.43882C11.9412 6.45824 10.6812 5.68824 9.42941 5.68824C9.01956 5.66771 8.61149 5.75501 8.2459 5.94141C7.88031 6.12782 7.56999 6.40682 7.34588 6.75059H7.28824V5.85294H5.35294V12.4412H7.41176V8.93706C7.382 8.57818 7.49505 8.22205 7.72635 7.94603C7.95764 7.67002 8.28851 7.49642 8.64706 7.46294H8.72529C9.38 7.46294 9.86588 7.87471 9.86588 8.91235V12.4412H11.9247L11.9412 8.43882Z" fill="#EFEFEF"/>
</svg>
