<svg width="167" height="70" viewBox="0 0 167 70" fill="none" xmlns="http://www.w3.org/2000/svg">
<rect x="0.608459" width="165.529" height="70" rx="8" fill="#2B2B2B"/>
<g clip-path="url(#clip0_512_587)">
<path d="M38.8098 31.8669C37.1926 24.7324 33.8218 22.8332 32.9619 21.4906C32.6074 20.8991 32.2933 20.2843 32.0218 19.6504C31.9764 20.2842 31.8929 20.6835 31.3542 21.1641C30.2725 22.1286 25.6785 25.8722 25.2919 33.9785C24.9317 41.5366 30.8482 46.1971 31.6299 46.6788C32.231 46.9746 32.963 46.6852 33.32 46.4137C36.1721 44.4563 40.069 39.238 38.813 31.8669" fill="#E481FD"/>
<path d="M32.2669 42.6542C32.1179 44.525 32.0112 45.6119 31.6331 46.6809C31.6331 46.6809 31.8813 48.4619 32.0556 50.3485H32.6725C32.8197 49.02 33.0443 47.7012 33.3454 46.3989C32.5468 46.0059 32.2975 44.2957 32.2669 42.6542Z" fill="#E481FD"/>
<path d="M33.3443 46.3999C32.5373 46.0271 32.3039 44.2809 32.2679 42.6542C32.4675 39.9707 32.5257 37.2786 32.4422 34.5891C32.4 33.1778 32.4623 21.518 32.0947 19.811C32.3462 20.3891 32.6359 20.9499 32.9619 21.4895C33.8218 22.8332 37.1936 24.7324 38.8098 31.8669C40.069 39.2253 36.1933 44.4299 33.3443 46.3999Z" fill="#B264C6"/>
<path d="M139.717 43.8204C139.372 43.8204 139.034 43.7182 138.746 43.5267C138.458 43.3351 138.234 43.0629 138.101 42.7441C137.967 42.4253 137.931 42.0741 137.997 41.7349C138.062 41.3956 138.227 41.0833 138.47 40.8373C138.712 40.5913 139.022 40.4225 139.361 40.3522C139.699 40.2818 140.051 40.3131 140.371 40.442C140.692 40.5709 140.967 40.7918 141.163 41.0767C141.358 41.3617 141.465 41.6981 141.47 42.0436C141.476 42.2766 141.435 42.5085 141.35 42.7253C141.264 42.9421 141.136 43.1394 140.972 43.3053C140.808 43.4712 140.613 43.6024 140.397 43.6909C140.181 43.7794 139.95 43.8235 139.717 43.8204ZM139.717 40.4739C139.401 40.4718 139.092 40.5635 138.829 40.7373C138.565 40.9111 138.359 41.1592 138.236 41.4503C138.114 41.7413 138.081 42.0621 138.141 42.3721C138.201 42.6821 138.351 42.9673 138.574 43.1916C138.796 43.4159 139.08 43.5692 139.389 43.6321C139.698 43.6949 140.019 43.6646 140.312 43.5448C140.604 43.4251 140.854 43.2213 141.03 42.9593C141.206 42.6973 141.301 42.389 141.302 42.0732C141.306 41.8633 141.268 41.6547 141.19 41.4598C141.112 41.2649 140.995 41.0876 140.848 40.9385C140.7 40.7893 140.524 40.6714 140.33 40.5916C140.135 40.5118 139.927 40.4718 139.717 40.4739ZM140.14 43.176L139.688 42.201H139.323V43.176H139.058V40.9577H139.712C140.199 40.9577 140.402 41.169 140.402 41.5778C140.402 41.9031 140.249 42.106 139.963 42.1683L140.43 43.1729L140.14 43.176ZM139.334 41.9718H139.717C140.028 41.9718 140.146 41.8662 140.146 41.5831C140.146 41.3 140.033 41.2039 139.683 41.2039H139.334V41.9718Z" fill="white"/>
<path d="M113.635 42.2232C114.109 42.6024 115.057 42.7588 115.893 42.7588C116.975 42.7588 118.037 42.5581 119.074 41.6211C120.131 40.6609 120.857 39.1915 120.857 36.8454C120.857 34.5912 120 32.7616 118.24 31.6905C117.247 31.0662 115.96 30.8201 114.493 30.8201C114.07 30.8201 113.635 30.8423 113.388 30.9542C113.287 31.0342 113.215 31.1458 113.184 31.2711C113.14 31.6725 113.14 34.7296 113.14 36.537C113.14 38.3898 113.14 40.9736 113.184 41.2905C113.207 41.5588 113.343 42.0299 113.635 42.2274M109.131 29.8166C109.514 29.8166 110.972 29.8831 111.65 29.8831C112.918 29.8831 113.794 29.8166 116.163 29.8166C118.149 29.8166 119.82 30.3521 121.015 31.3778C122.46 32.6285 123.233 34.3683 123.233 36.4884C123.233 39.501 121.86 41.2419 120.479 42.2232C119.106 43.25 117.32 43.8299 114.775 43.8299C113.421 43.8299 111.096 43.7855 109.155 43.7633H109.115C109.024 43.5848 109.281 42.8887 109.439 42.8707C109.968 42.8116 110.107 42.7905 110.35 42.6901C110.76 42.5221 110.856 42.313 110.901 41.5767C110.969 40.1929 110.947 38.5419 110.947 36.6669C110.947 35.3285 110.969 32.7173 110.925 31.8912C110.856 31.2004 110.564 31.0218 109.974 30.8877C109.555 30.7987 109.132 30.7317 108.706 30.687C108.662 30.5528 109.008 29.9476 109.121 29.8166" fill="white"/>
<path d="M128.826 30.949C128.737 30.9711 128.624 31.1951 128.624 31.306C128.6 32.1099 128.578 34.2067 128.578 35.657C128.584 35.6848 128.598 35.7102 128.618 35.7301C128.638 35.75 128.663 35.7636 128.691 35.769C128.984 35.7912 129.706 35.8144 130.316 35.8144C131.174 35.8144 131.67 35.7025 131.94 35.5683C132.663 35.2113 132.997 34.4296 132.997 33.5824C132.997 31.6409 131.643 30.9046 129.634 30.9046C129.363 30.9012 129.092 30.916 128.822 30.949M133.945 39.875C133.945 37.9113 132.5 36.7958 129.859 36.7958C129.747 36.7958 128.909 36.7736 128.709 36.818C128.642 36.8401 128.574 36.8845 128.574 36.9299C128.574 38.3359 128.551 40.5891 128.619 41.4817C128.665 41.8609 128.936 42.3964 129.273 42.5528C129.634 42.7535 130.447 42.7979 131.011 42.7979C132.568 42.7979 133.945 41.9285 133.945 39.875ZM124.749 29.8557C124.953 29.8557 125.553 29.9222 127.088 29.9222C128.532 29.9222 129.705 29.8778 131.102 29.8778C132.839 29.8778 135.231 30.5032 135.231 33.0912C135.231 34.3588 134.329 35.3898 133.155 35.881C133.088 35.9032 133.088 35.9475 133.155 35.9697C134.825 36.3922 136.291 37.4201 136.291 39.3838C136.291 41.3031 135.096 42.5084 133.358 43.2669C132.302 43.7359 130.989 43.8912 129.661 43.8912C128.646 43.8912 125.925 43.7855 124.412 43.8024C124.253 43.7359 124.557 43.0207 124.692 42.9098C125.038 42.8992 125.382 42.8452 125.715 42.7493C126.256 42.6162 126.321 42.4419 126.388 41.638C126.434 40.9461 126.434 38.469 126.434 36.706C126.434 34.2954 126.457 32.6676 126.434 31.8637C126.412 31.2395 126.186 31.0377 125.757 30.9268C125.419 30.8592 124.855 30.7926 124.403 30.7261C124.29 30.6141 124.638 29.9444 124.75 29.8557" fill="white"/>
<path d="M43.8073 43.8204C43.7492 43.6776 43.7257 43.523 43.7387 43.3693C43.7336 43.2646 43.7574 43.1605 43.8073 43.0683C44.0992 43.0262 44.3884 42.9673 44.6735 42.8919C45.0728 42.7926 45.2228 42.575 45.2461 42.0658C45.3115 40.8627 45.3158 38.6053 45.2925 37.0187V36.9722C45.2925 36.8011 45.2925 36.5687 45.0813 36.4049C44.7099 36.172 44.3068 35.9941 43.8844 35.8768C43.6954 35.8208 43.5908 35.7215 43.5961 35.6053C43.6013 35.4891 43.7207 35.3518 43.9668 35.3032C44.6207 35.2366 46.3341 34.8278 47.007 34.5173C47.0763 34.6076 47.1084 34.7209 47.0968 34.8342C47.0968 34.9039 47.0862 34.9778 47.0788 35.0539C47.0598 35.2778 47.0387 35.5324 47.0387 35.7859C47.0428 35.8167 47.0554 35.8457 47.0752 35.8697C47.0949 35.8937 47.121 35.9117 47.1504 35.9217C47.1798 35.9317 47.2115 35.9333 47.2417 35.9263C47.272 35.9193 47.2997 35.904 47.3218 35.882C48.6031 34.8775 49.7513 34.5194 50.3397 34.5194C51.3084 34.5194 52.0626 34.982 52.6467 35.9349C52.6601 35.9579 52.6792 35.977 52.7021 35.9905C52.7251 36.004 52.7511 36.0114 52.7777 36.012C52.8019 36.0117 52.8257 36.0057 52.847 35.9943C52.8684 35.9829 52.8866 35.9665 52.9002 35.9465C54.0781 35.0528 55.2453 34.5194 56.027 34.5194C57.8735 34.5194 58.9773 35.9021 58.9773 38.2165C58.9773 38.882 58.971 39.726 58.9647 40.513C58.9594 41.2039 58.9541 41.8514 58.9541 42.2993C58.9541 42.4049 59.0999 42.7091 59.3185 42.7693C59.589 42.9014 59.9787 42.969 60.4721 43.0535H60.4911C60.528 43.1866 60.4499 43.7031 60.3749 43.8088C60.2523 43.8088 60.0833 43.7982 59.8721 43.7876C59.4886 43.7686 58.9625 43.7422 58.3509 43.7422C57.1235 43.7422 56.4823 43.7655 55.8696 43.8056C55.8231 43.6524 55.8073 43.1581 55.8633 43.0545C56.117 43.0149 56.3681 42.9602 56.6154 42.8908C57.0062 42.7619 57.1192 42.5845 57.1435 42.0658C57.153 41.6972 57.2238 38.4489 57.0981 37.6778C56.9819 36.8782 56.3798 35.9423 55.0626 35.9423C54.5735 35.9423 53.7844 36.1461 53.0323 36.7165C52.9856 36.7694 52.9594 36.8372 52.9583 36.9077V36.9236C53.0471 37.3398 53.0471 37.8257 53.0471 38.5598C53.0471 38.9824 53.0471 39.4229 53.0418 39.8634C53.0365 40.7591 53.0323 41.6042 53.0471 42.2433C53.0471 42.6785 53.3101 42.7831 53.5224 42.8665C53.6376 42.8919 53.7284 42.9141 53.8203 42.9352C53.9967 42.9785 54.1805 43.0229 54.4541 43.0662C54.4946 43.2517 54.491 43.4442 54.4436 43.6281C54.4324 43.6972 54.4052 43.7626 54.3643 43.8193C53.6819 43.7961 52.9816 43.776 51.9707 43.776C51.6643 43.776 51.1647 43.7887 50.7231 43.8003C50.365 43.8098 50.027 43.8193 49.8348 43.8204C49.7828 43.6977 49.7596 43.5647 49.7672 43.4317C49.7564 43.3063 49.7809 43.1804 49.8379 43.0683L50.1094 43.0186C50.346 42.9764 50.551 42.9405 50.7432 42.8919C51.077 42.7862 51.2027 42.6045 51.227 42.1788C51.2925 41.1859 51.3432 38.3243 51.2027 37.6081C50.964 36.4588 50.3101 35.8757 49.258 35.8757C48.6422 35.8757 47.8637 36.1725 47.2277 36.6489C47.1666 36.7085 47.1184 36.7801 47.0862 36.8591C47.054 36.9382 47.0386 37.0231 47.0408 37.1084C47.0408 37.4496 47.0408 37.8553 47.0408 38.2905C47.0408 39.7271 47.0313 41.5155 47.0661 42.2887C47.0872 42.5274 47.1718 42.8105 47.6186 42.9141C47.7168 42.9426 47.8858 42.97 48.0823 43.0028C48.1953 43.0218 48.3189 43.0419 48.4467 43.0651C48.4874 43.3181 48.4667 43.5771 48.3865 43.8204C48.1901 43.8204 47.9482 43.8077 47.6714 43.7961C47.2489 43.7771 46.7207 43.7538 46.1239 43.7538C45.4182 43.7538 44.927 43.7771 44.533 43.7961C44.2679 43.8088 44.0387 43.8193 43.8094 43.8204" fill="white"/>
<path d="M66.4604 35.4743C66.0792 35.4664 65.7041 35.5719 65.383 35.7775C64.5992 36.2539 64.1999 37.2056 64.1999 38.6042C64.1999 41.2218 65.5108 43.0503 67.3879 43.0503C67.8912 43.0663 68.3821 42.8924 68.7632 42.5633C69.34 42.0933 69.6463 41.132 69.6463 39.7862C69.6463 37.2077 68.365 35.4743 66.4583 35.4743M66.8196 44.0211C63.4287 44.0211 62.2213 41.5334 62.2213 39.2063C62.2213 37.5806 62.8858 36.3098 64.1967 35.4278C65.1149 34.8594 66.1688 34.5478 67.2484 34.5257C69.8354 34.5257 71.6428 36.3859 71.6428 39.051C71.6428 40.8616 70.9213 42.2919 69.5555 43.1855C68.8995 43.5869 67.7597 44.0211 66.8196 44.0211Z" fill="white"/>
<path d="M100.981 35.4743C100.599 35.4656 100.223 35.5712 99.9018 35.7775C99.118 36.2539 98.7187 37.2056 98.7187 38.6042C98.7187 41.2218 100.03 43.0503 101.907 43.0503C102.411 43.0673 102.904 42.8935 103.286 42.5633C103.863 42.0933 104.168 41.132 104.168 39.7862C104.168 37.2077 102.888 35.4743 100.981 35.4743ZM101.343 44.0211C97.9518 44.0211 96.7444 41.5334 96.7444 39.2074C96.7444 37.5796 97.4088 36.3098 98.7208 35.4278C99.6384 34.859 100.692 34.5475 101.772 34.5257C104.358 34.5257 106.166 36.387 106.166 39.05C106.166 40.8626 105.444 42.2919 104.079 43.1845C103.423 43.5869 102.283 44.0211 101.343 44.0211Z" fill="white"/>
<path d="M89.5645 35.3856C88.5198 35.3856 87.8438 36.2106 87.8438 37.4877C87.8438 38.7648 88.4258 40.2827 90.0621 40.2827C90.3431 40.2827 90.8522 40.1581 91.1047 39.8803C91.485 39.5306 91.7385 38.8081 91.7385 38.0454C91.7385 36.3796 90.9272 35.3856 89.5698 35.3856M89.4346 44.1996C89.1395 44.1964 88.8485 44.2691 88.5896 44.4109C87.7624 44.939 87.379 45.4672 87.379 46.0809C87.379 46.6556 87.6019 47.113 88.0815 47.5186C88.6624 48.0109 89.4462 48.2506 90.4762 48.2506C92.5033 48.2506 93.4117 47.1605 93.4117 46.0809C93.4117 45.3288 93.0346 44.825 92.2582 44.5397C91.6603 44.3211 90.661 44.2007 89.4378 44.2007M89.573 49.3767C88.3561 49.3767 87.4793 49.12 86.7304 48.5432C86.0015 47.9813 85.6741 47.1468 85.6741 46.57C85.682 46.1983 85.8237 45.842 86.0734 45.5665C86.2846 45.3257 86.7758 44.8746 87.9114 44.094C87.929 44.0865 87.944 44.074 87.9545 44.058C87.965 44.042 87.9706 44.0233 87.9705 44.0042C87.9709 43.9828 87.964 43.962 87.9509 43.9451C87.9379 43.9282 87.9195 43.9163 87.8987 43.9112C86.9639 43.5531 86.6818 42.9605 86.5962 42.6436C86.5962 42.632 86.5962 42.6141 86.5867 42.594C86.5603 42.4693 86.535 42.351 86.705 42.2295C86.836 42.1366 87.0452 42.0119 87.2691 41.8799C87.5853 41.7049 87.8885 41.5076 88.1765 41.2894C88.192 41.2728 88.2035 41.2528 88.2101 41.2311C88.2166 41.2093 88.2181 41.1863 88.2145 41.1639C88.2108 41.1415 88.2021 41.1202 88.1889 41.1016C88.1757 41.0831 88.1585 41.0679 88.1385 41.057C86.7547 40.5922 86.0575 39.5644 86.0575 37.9937C86.0533 37.5038 86.1672 37.0202 86.3897 36.5838C86.6123 36.1475 86.9367 35.7712 87.3357 35.487C87.8924 35.0465 89.2899 34.5173 90.1952 34.5173H90.248C91.1786 34.5394 91.7036 34.7349 92.4304 35.0032C92.8438 35.1527 93.2818 35.2222 93.7212 35.2081C94.4913 35.2081 94.8283 34.9641 95.1177 34.6799C95.1646 34.8079 95.1896 34.9429 95.1916 35.0792C95.2093 35.404 95.1211 35.7258 94.9402 35.9961C94.7828 36.2148 94.4121 36.3732 94.073 36.3732C94.0381 36.3732 94.0043 36.3732 93.9673 36.368C93.7889 36.3554 93.6121 36.326 93.4392 36.2803L93.3526 36.3109C93.3251 36.3511 93.3431 36.3954 93.3652 36.4525C93.3707 36.4636 93.3749 36.4753 93.3779 36.4873C93.4397 36.7692 93.4817 37.0552 93.5036 37.3429C93.5036 38.9855 92.8561 39.7007 92.1557 40.231C91.4786 40.739 90.6745 41.0504 89.8318 41.131C89.8138 41.131 89.7262 41.1384 89.5614 41.1531C89.4557 41.1627 89.3184 41.1753 89.2984 41.1753H89.2783C89.1262 41.2176 88.729 41.4067 88.729 41.7584C88.729 42.05 88.9086 42.4123 89.7674 42.4778L90.323 42.5169C91.4554 42.5961 92.8698 42.6943 93.5353 42.9193C93.9768 43.0746 94.358 43.365 94.6249 43.7495C94.8917 44.1339 95.0305 44.5927 95.0216 45.0605C95.0216 46.5341 93.9737 47.92 92.2191 48.7672C91.3917 49.1624 90.4857 49.3657 89.5688 49.3619" fill="white"/>
<path d="M84.3822 43.0345C83.8857 42.9679 83.5234 42.9003 83.0956 42.6996C83.0116 42.6126 82.9563 42.5021 82.9371 42.3827C82.8917 41.6908 82.8917 39.6827 82.8917 38.3686C82.8917 37.2965 82.7121 36.3616 82.2579 35.6908C81.716 34.9313 80.9491 34.4856 79.9561 34.4856C79.0762 34.4856 77.9026 35.0877 76.9329 35.9137C76.9097 35.9359 76.7607 36.0775 76.7639 35.8577C76.7671 35.638 76.8009 35.1923 76.822 34.907C76.8314 34.8313 76.8229 34.7543 76.7972 34.6824C76.7715 34.6105 76.7294 34.5456 76.6741 34.493C76.0403 34.8099 74.2625 35.2324 73.6044 35.2968C73.1248 35.3898 73.0033 35.8514 73.5157 36.0109H73.5231C73.9332 36.124 74.3246 36.2962 74.685 36.5222C74.8878 36.6785 74.8657 36.9014 74.8657 37.0799C74.8878 38.5746 74.8878 40.8732 74.8202 42.1229C74.7981 42.614 74.6618 42.7926 74.3005 42.8824L74.3343 42.8707C74.0592 42.9397 73.7802 42.9919 73.4988 43.0271C73.3857 43.138 73.3857 43.7855 73.4988 43.9197C73.7248 43.9197 74.872 43.8531 75.8227 43.8531C77.1304 43.8531 77.8075 43.9197 78.1466 43.9197C78.2829 43.7633 78.3273 43.1612 78.2375 43.0271C77.925 43.0129 77.6147 42.968 77.3111 42.8929C76.9509 42.8042 76.86 42.6246 76.8378 42.2243C76.7935 41.1743 76.7935 38.9433 76.7935 37.4253C76.7935 37.0028 76.9054 36.801 77.0406 36.6859C77.4917 36.2845 78.2375 36.0172 78.8913 36.0172C79.5251 36.0172 79.9477 36.218 80.2646 36.4852C80.6337 36.8073 80.8651 37.2588 80.9111 37.7465C81.0008 38.5915 80.9776 40.2912 80.9776 41.7605C80.9776 42.5644 80.9111 42.7662 80.6174 42.8549C80.4822 42.9214 80.1209 42.989 79.692 43.0334C79.5568 43.1676 79.6012 43.7919 79.692 43.926C80.2783 43.926 80.9596 43.8595 81.9484 43.8595C83.1896 43.8595 83.9797 43.926 84.2955 43.926C84.4308 43.7697 84.4762 43.1866 84.3864 43.0334" fill="white"/>
</g>
<defs>
<clipPath id="clip0_512_587">
<rect width="117.529" height="31.69" fill="white" transform="translate(24.6085 19.155)"/>
</clipPath>
</defs>
</svg>
