<svg width="111" height="70" viewBox="0 0 111 70" fill="none" xmlns="http://www.w3.org/2000/svg">
<rect x="0.265289" width="110.046" height="70" rx="8" fill="#2B2B2B"/>
<g clip-path="url(#clip0_512_557)">
<path d="M54.9324 54.0001C54.7276 54.0001 54.5242 53.9464 54.3447 53.8431L52.4741 52.7356C52.1947 52.5793 52.331 52.5241 52.4232 52.4922C52.7957 52.3618 52.8713 52.3323 53.2689 52.1065C53.3107 52.0827 53.3654 52.0911 53.4082 52.1163L54.8453 52.9691C54.8972 52.9972 54.9708 52.9972 55.0189 52.9691L60.6222 49.7348C60.6741 49.7053 60.7078 49.645 60.7078 49.5833V43.1174C60.7078 43.0529 60.6741 42.9953 60.6211 42.9631L55.02 39.7315C54.9682 39.7007 54.8994 39.7007 54.8475 39.7315L49.2476 42.9631C49.1933 42.9939 49.1588 43.0543 49.1588 43.116V49.5819C49.1588 49.6436 49.1925 49.7025 49.2458 49.7319L50.7802 50.6184C51.6133 51.0349 52.1225 50.544 52.1225 50.0503V43.6686C52.1225 43.5774 52.194 43.5073 52.2852 43.5073H52.9949C53.0832 43.5073 53.1562 43.5774 53.1562 43.6686V50.0531C53.1562 51.164 52.5502 51.8022 51.4969 51.8022C51.1729 51.8022 50.9176 51.8022 50.2051 51.4515L48.7352 50.6044C48.372 50.394 48.1475 50.0012 48.1475 49.5819V43.116C48.1475 42.6952 48.372 42.3025 48.7352 42.0949L54.3441 38.8591C54.699 38.6586 55.1703 38.6586 55.5223 38.8591L61.1242 42.0963C61.4861 42.3053 61.7119 42.6966 61.7119 43.1174V49.5833C61.7119 50.0026 61.4861 50.394 61.1242 50.6044L55.5223 53.8401C55.3428 53.9439 55.1394 53.9972 54.9318 53.9972" fill="#E481FD"/>
<path d="M56.6632 49.5447C54.2115 49.5447 53.6974 48.4193 53.6974 47.4753C53.6974 47.3856 53.7698 47.314 53.8597 47.314H54.5834C54.6634 47.314 54.7307 47.3722 54.7433 47.4512C54.8527 48.1887 55.1781 48.5606 56.6606 48.5606C57.8416 48.5606 58.3437 48.2939 58.3437 47.6676C58.3437 47.3072 58.2007 47.0393 56.3661 46.8597C54.8317 46.7083 53.8835 46.3702 53.8835 45.143C53.8835 44.0125 54.8373 43.3393 56.4348 43.3393C58.2287 43.3393 59.118 43.962 59.2302 45.3001C59.2344 45.3464 59.2176 45.3912 59.1867 45.4249C59.1558 45.4572 59.1124 45.4768 59.0675 45.4768H58.3395C58.2638 45.4768 58.1979 45.4235 58.1824 45.3506C58.0071 44.5749 57.5835 44.3267 56.432 44.3267C55.1431 44.3267 54.993 44.7755 54.993 45.1121C54.993 45.5203 55.1697 45.6395 56.9089 45.8695C58.6313 46.0981 59.449 46.4207 59.449 47.6312C59.449 48.8514 58.4307 49.5513 56.655 49.5513M63.48 42.6941H63.6679C63.8222 42.6941 63.8517 42.5861 63.8517 42.523C63.8517 42.3574 63.7381 42.3574 63.675 42.3574H63.4814L63.48 42.6941ZM63.2514 42.1639H63.6679C63.811 42.1639 64.0915 42.1639 64.0915 42.4837C64.0915 42.7067 63.9485 42.753 63.8629 42.781C64.0298 42.7922 64.041 42.9017 64.0635 43.0559C64.0747 43.1527 64.0929 43.3196 64.1266 43.3757H63.8699C63.8629 43.3196 63.8236 43.0111 63.8236 42.9942C63.8068 42.9255 63.783 42.8918 63.6974 42.8918H63.4856V43.3771H63.2514V42.1639ZM62.7507 42.767C62.7507 43.2691 63.156 43.6759 63.6539 43.6759C64.156 43.6759 64.5614 43.2607 64.5614 42.767C64.5614 42.2635 64.1504 41.8637 63.6525 41.8637C63.1616 41.8637 62.7492 42.2579 62.7492 42.7656M64.7353 42.7698C64.7353 43.3645 64.2486 43.8498 63.6553 43.8498C63.0662 43.8498 62.5753 43.3701 62.5753 42.7698C62.5753 42.1583 63.0775 41.6898 63.6553 41.6898C64.2374 41.6898 64.7339 42.1597 64.7339 42.7698" fill="#E481FD"/>
<path fill-rule="evenodd" clip-rule="evenodd" d="M37.581 28.7003C37.581 28.4423 37.4449 28.2052 37.2222 28.0769L31.2814 24.6588C31.1811 24.5999 31.0688 24.569 30.9549 24.5648H30.8935C30.7796 24.569 30.6672 24.5999 30.5653 24.6588L24.6248 28.0769C24.4034 28.2059 24.2654 28.443 24.2654 28.701L24.2785 37.9076C24.2785 38.0352 24.3444 38.1544 24.4566 38.2176C24.566 38.2849 24.7035 38.2849 24.8129 38.2176L28.3446 36.195C28.5676 36.0624 28.7036 35.8278 28.7036 35.5723V31.2713C28.7036 31.0146 28.8397 30.7776 29.062 30.6499L30.5655 29.784C30.6772 29.7195 30.7998 29.6875 30.9246 29.6875C31.0475 29.6875 31.1729 29.7192 31.2814 29.7838L32.7843 30.6495C33.0067 30.7771 33.1433 31.0142 33.1433 31.2709V35.5716C33.1433 35.8269 33.2812 36.0625 33.5031 36.1943L37.0326 38.2155C37.1434 38.2814 37.2812 38.2814 37.3916 38.2155C37.5005 38.1523 37.5695 38.0331 37.5695 37.9055L37.581 28.7003ZM65.6141 33.4938C65.6141 33.5579 65.58 33.6172 65.5243 33.6489L63.4839 34.8251C63.4285 34.857 63.36 34.857 63.3047 34.8251L61.264 33.6489C61.2079 33.6171 61.1742 33.5578 61.1742 33.4938V31.138C61.1742 31.0738 61.2079 31.0146 61.2626 30.9823L63.3019 29.8042C63.358 29.7719 63.4268 29.7719 63.4829 29.8042L65.5236 30.9823C65.5797 31.0146 65.6134 31.0738 65.6134 31.138L65.6141 33.4938ZM66.1653 16.0454C66.0539 15.9834 65.9185 15.9851 65.8085 16.0492C65.6991 16.1137 65.6315 16.2315 65.6315 16.3592V25.4759C65.6315 25.5657 65.5838 25.6485 65.5061 25.6933C65.429 25.7382 65.3329 25.7382 65.255 25.6933L63.7669 24.8362C63.5453 24.708 63.2723 24.708 63.0499 24.8362L57.1072 28.266C56.8851 28.3936 56.7481 28.6306 56.7481 28.8859V35.7473C56.7481 36.004 56.8851 36.2396 57.1072 36.3687L63.0499 39.8008C63.2718 39.9284 63.545 39.9284 63.7676 39.8008L69.7103 36.3673C69.9319 36.2382 70.0694 36.0026 70.0694 35.7459V18.6457C70.0694 18.3853 69.9277 18.1459 69.7005 18.0187L66.1653 16.0454ZM85.9548 31.076C86.1755 30.9478 86.3114 30.7111 86.3114 30.4558V28.7929C86.3114 28.5371 86.1754 28.301 85.9542 28.1723L80.0493 24.7444C79.8263 24.6153 79.5528 24.6153 79.3298 24.7444L73.3885 28.1737C73.1655 28.3027 73.0294 28.5383 73.0294 28.795V35.6536C73.0294 35.9117 73.1683 36.1502 73.3913 36.2778L79.2947 39.6426C79.5121 39.7674 79.7786 39.7688 79.9988 39.6468L83.5698 37.6621C83.682 37.599 83.7535 37.4798 83.7535 37.3508C83.7535 37.2217 83.6848 37.1011 83.5726 37.038L77.5948 33.6073C77.4826 33.5442 77.4139 33.4249 77.4139 33.2973V31.1457C77.4139 31.0173 77.4812 30.8989 77.5934 30.8349L79.4532 29.762C79.564 29.6974 79.7001 29.6974 79.8109 29.762L81.6721 30.8349C81.7829 30.898 81.8516 31.0173 81.8516 31.1449V32.8364C81.8516 32.9641 81.9204 33.0833 82.0312 33.1478C82.142 33.2109 82.2794 33.2109 82.3902 33.1464L85.9548 31.076Z" fill="white"/>
<path fill-rule="evenodd" clip-rule="evenodd" d="M79.6025 30.7552C79.6446 30.7303 79.6973 30.7303 79.74 30.7552L80.8803 31.413C80.9229 31.4377 80.949 31.4831 80.949 31.5322V32.8492C80.949 32.8983 80.9229 32.9437 80.8803 32.9684L79.74 33.6262C79.6973 33.6511 79.6446 33.6511 79.6025 33.6262L78.4629 32.9684C78.4195 32.9437 78.3928 32.8983 78.3928 32.8492V31.5322C78.3928 31.4831 78.4181 31.4377 78.4615 31.413L79.6025 30.7552Z" fill="#E481FD"/>
<mask id="mask0_512_557" style="mask-type:luminance" maskUnits="userSpaceOnUse" x="40" y="24" width="14" height="16">
<path d="M46.8082 24.7786L40.8991 28.1893C40.6778 28.3169 40.542 28.5525 40.542 28.8073V35.6333C40.542 35.8882 40.6778 36.1237 40.8991 36.2513L46.8086 39.6646C47.0295 39.7919 47.3019 39.7919 47.5225 39.6646L53.4311 36.2513C53.6513 36.1237 53.7873 35.888 53.7873 35.6333V28.8073C53.7873 28.5525 53.6513 28.3169 53.4297 28.1893L47.522 24.7786C47.4112 24.7151 47.2878 24.6832 47.1643 24.6832C47.0409 24.6832 46.9175 24.7151 46.8067 24.7786" fill="white"/>
</mask>
<g mask="url(#mask0_512_557)">
<path d="M59.7587 27.6101L43.1079 19.4485L34.5704 36.8649L51.2207 45.027L59.7587 27.6101Z" fill="#B264C6"/>
</g>
<mask id="mask1_512_557" style="mask-type:luminance" maskUnits="userSpaceOnUse" x="40" y="24" width="14" height="16">
<path d="M40.6885 36.0667C40.745 36.1401 40.8157 36.2036 40.8989 36.2513L45.9678 39.1792L46.8121 39.6645C46.9384 39.7374 47.0823 39.7683 47.2237 39.7578C47.2708 39.754 47.3179 39.7451 47.3639 39.7321L53.5961 28.3207C53.5485 28.2688 53.4926 28.2253 53.4301 28.1889L49.5609 25.9545L47.5157 24.7778C47.4576 24.7441 47.3946 24.7203 47.3305 24.7034L40.6885 36.0667Z" fill="white"/>
</mask>
<g mask="url(#mask1_512_557)">
<path d="M33.4893 30.0241L45.2464 45.9368L60.7955 34.4489L49.0376 18.5366L33.4893 30.0241Z" fill="#864796"/>
</g>
<mask id="mask2_512_557" style="mask-type:luminance" maskUnits="userSpaceOnUse" x="40" y="24" width="14" height="16">
<path d="M47.0938 24.6872C46.9946 24.697 46.8977 24.7278 46.8084 24.7786L40.9161 28.1795L47.2698 39.7522C47.3582 39.7395 47.4451 39.7101 47.5237 39.6646L53.4327 36.2513C53.6151 36.1456 53.7399 35.9666 53.7778 35.7638L47.3007 24.6988C47.253 24.6894 47.2053 24.6845 47.1562 24.6845C47.1366 24.6845 47.1169 24.6855 47.0973 24.6873" fill="white"/>
</mask>
<g mask="url(#mask2_512_557)">
<path d="M40.9158 24.6845V39.7524H53.7751V24.6845H40.9158Z" fill="#E481FD"/>
</g>
</g>
<defs>
<clipPath id="clip0_512_557">
<rect width="62.0462" height="38" fill="white" transform="translate(24.2653 16)"/>
</clipPath>
</defs>
</svg>
