<svg width="83" height="70" viewBox="0 0 83 70" fill="none" xmlns="http://www.w3.org/2000/svg">
<rect x="0.311432" width="82.297" height="70" rx="8" fill="#2B2B2B"/>
<path fill-rule="evenodd" clip-rule="evenodd" d="M35.7847 21.4015C34.839 21.0955 34.1338 21.1502 33.6313 21.4404C33.1288 21.7305 32.7288 22.3138 32.5209 23.2858C32.313 24.2578 32.3187 25.5356 32.5616 27.0516C32.6549 27.6341 32.7823 28.2459 32.943 28.8815C34.3538 28.5622 35.8914 28.3207 37.5168 28.1705C38.4597 26.8379 39.4377 25.627 40.4196 24.5649C39.9495 24.1078 39.4834 23.6917 39.0256 23.3196C37.8341 22.3512 36.7304 21.7074 35.7847 21.4015ZM41.46 23.4966C40.9588 23.0093 40.4595 22.5634 39.9661 22.1624C38.6919 21.1268 37.4259 20.3651 36.2437 19.9827C35.0616 19.6003 33.8809 19.5744 32.8857 20.149C31.8905 20.7236 31.3226 21.759 31.0627 22.9739C30.8028 24.189 30.8294 25.6663 31.0892 27.2875C31.1898 27.9153 31.3263 28.5707 31.4977 29.2483C30.8251 29.4387 30.1893 29.6482 29.5954 29.875C28.0614 30.4606 26.7687 31.1762 25.8464 32.0088C24.9242 32.8413 24.3114 33.8509 24.3114 35.0001C24.3114 36.1493 24.9242 37.1588 25.8464 37.9913C26.7687 38.8239 28.0614 39.5395 29.5954 40.1252C30.1893 40.3519 30.8251 40.5614 31.4977 40.7518C31.3263 41.4294 31.1898 42.0848 31.0892 42.7125C30.8294 44.3338 30.8028 45.8111 31.0627 47.0261C31.3225 48.241 31.8905 49.2765 32.8857 49.8511C33.8809 50.4257 35.0616 50.3997 36.2437 50.0173C37.4259 49.6349 38.6919 48.8732 39.9661 47.8376C40.4595 47.4366 40.9588 46.9907 41.46 46.5035C41.9611 46.9907 42.4604 47.4366 42.9538 47.8376C44.228 48.8732 45.494 49.6349 46.6762 50.0173C47.8583 50.3997 49.039 50.4256 50.0342 49.851C51.0294 49.2764 51.5974 48.241 51.8572 47.0261C52.1171 45.811 52.0905 44.3337 51.8307 42.7125C51.7301 42.0847 51.5936 41.4294 51.4222 40.7518C52.0948 40.5614 52.7306 40.3519 53.3245 40.1252C54.8584 39.5395 56.1511 38.8239 57.0734 37.9913C57.9956 37.1588 58.6084 36.1493 58.6084 35.0001C58.6084 33.8509 57.9956 32.8413 57.0734 32.0088C56.1511 31.1762 54.8584 30.4606 53.3245 29.875C52.7306 29.6482 52.0947 29.4387 51.4222 29.2483C51.5936 28.5707 51.7301 27.9153 51.8307 27.2876C52.0904 25.6663 52.1171 24.189 51.8572 22.974C51.5973 21.7591 51.0294 20.7236 50.0342 20.149C49.039 19.5744 47.8582 19.6003 46.6762 19.9827C45.494 20.3652 44.2279 21.1269 42.9538 22.1625C42.4604 22.5634 41.9611 23.0093 41.46 23.4966ZM41.46 25.6364C40.792 26.3629 40.1223 27.166 39.4625 28.0367C40.1182 28.0069 40.7847 27.9915 41.4599 27.9915C42.1352 27.9915 42.8018 28.0069 43.4574 28.0367C42.7976 27.166 42.1279 26.3629 41.46 25.6364ZM36.4282 29.7886C35.3443 29.9246 34.3139 30.1031 33.3508 30.3182C33.6461 31.2599 34.0067 32.2414 34.4308 33.2481C34.7328 32.6654 35.0528 32.0805 35.3904 31.4958C35.728 30.911 36.0745 30.3414 36.4282 29.7886ZM35.222 35C35.6603 34.09 36.1473 33.1671 36.6818 32.2414C37.2163 31.3156 37.772 30.4324 38.3409 29.5978C39.3481 29.5224 40.391 29.4827 41.4599 29.4827C42.5289 29.4827 43.5718 29.5224 44.579 29.5978C45.1479 30.4324 45.7036 31.3156 46.2381 32.2413C46.7726 33.1671 47.2596 34.09 47.6979 35C47.2596 35.91 46.7726 36.8329 46.2381 37.7587C45.7036 38.6845 45.1478 39.5677 44.5789 40.4023C43.5717 40.4777 42.5289 40.5174 41.4599 40.5174C40.391 40.5174 39.3482 40.4777 38.341 40.4023C37.7721 39.5677 37.2163 38.6845 36.6818 37.7587C36.1473 36.8329 35.6603 35.91 35.222 35ZM33.5738 35C32.8912 33.5172 32.3316 32.0648 31.9027 30.6834C31.2718 30.8621 30.6784 31.0576 30.1273 31.268C28.6929 31.8157 27.5834 32.4497 26.8456 33.1157C26.1078 33.7818 25.8026 34.4198 25.8026 35.0001C25.8026 35.5803 26.1078 36.2184 26.8456 36.8844C27.5834 37.5504 28.6929 38.1844 30.1273 38.7321C30.6784 38.9425 31.2718 39.1381 31.9027 39.3167C32.3315 37.9352 32.8912 36.4829 33.5738 35ZM33.3508 39.6819C33.646 38.7402 34.0067 37.7586 34.4308 36.7519C34.7328 37.3346 35.0528 37.9195 35.3904 38.5043C35.728 39.089 36.0746 39.6587 36.4283 40.2115C35.3443 40.0755 34.3139 39.897 33.3508 39.6819ZM32.943 41.1186C32.7823 41.7542 32.6549 42.3659 32.5616 42.9484C32.3187 44.4645 32.313 45.7423 32.5209 46.7142C32.7288 47.6862 33.1288 48.2695 33.6313 48.5597C34.1338 48.8498 34.8389 48.9045 35.7847 48.5986C36.7304 48.2926 37.8341 47.6488 39.0256 46.6804C39.4834 46.3083 39.9495 45.8922 40.4196 45.4351C39.4377 44.3731 38.4598 43.1622 37.5169 41.8297C35.8914 41.6794 34.3538 41.4379 32.943 41.1186ZM42.5003 45.4351C42.9704 45.8922 43.4365 46.3083 43.8943 46.6804C45.0858 47.6488 46.1895 48.2926 47.1352 48.5985C48.081 48.9045 48.7861 48.8498 49.2886 48.5596C49.7911 48.2695 50.1911 47.6862 50.399 46.7142C50.6069 45.7422 50.6012 44.4644 50.3583 42.9484C50.265 42.3659 50.1376 41.7542 49.9769 41.1186C48.5661 41.4379 47.0285 41.6794 45.403 41.8297C44.4601 43.1622 43.4822 44.3731 42.5003 45.4351ZM43.4573 41.9634C42.7976 42.8341 42.1278 43.6371 41.46 44.3636C40.7921 43.6371 40.1223 42.8341 39.4626 41.9634C40.1182 41.9933 40.7847 42.0086 41.4599 42.0086C42.1351 42.0086 42.8017 41.9933 43.4573 41.9634ZM46.4917 40.2115C47.5756 40.0755 48.606 39.897 49.5691 39.6819C49.2739 38.7402 48.9133 37.7586 48.4891 36.7519C48.1871 37.3346 47.8671 37.9195 47.5295 38.5043C47.1919 39.0891 46.8453 39.6587 46.4917 40.2115ZM49.3461 35C50.0287 36.4829 50.5884 37.9352 51.0172 39.3167C51.6481 39.1381 52.2415 38.9425 52.7926 38.7321C54.227 38.1844 55.3365 37.5504 56.0742 36.8844C56.8121 36.2184 57.1173 35.5803 57.1173 35.0001C57.1173 34.4198 56.8121 33.7818 56.0742 33.1157C55.3365 32.4497 54.227 31.8157 52.7926 31.268C52.2415 31.0576 51.6481 30.8621 51.0172 30.6834C50.5883 32.0648 50.0287 33.5172 49.3461 35ZM49.9769 28.8815C48.5661 28.5622 47.0285 28.3207 45.4031 28.1705C44.4602 26.8379 43.4822 25.627 42.5003 24.5649C42.9704 24.1078 43.4365 23.6917 43.8942 23.3196C45.0858 22.3513 46.1895 21.7074 47.1352 21.4015C48.0809 21.0955 48.7861 21.1502 49.2886 21.4404C49.7911 21.7305 50.1911 22.3138 50.399 23.2859C50.6069 24.2578 50.6012 25.5356 50.3583 27.0517C50.265 27.6342 50.1376 28.2459 49.9769 28.8815ZM49.5691 30.3182C49.2738 31.2599 48.9132 32.2414 48.4891 33.2481C48.1871 32.6654 47.8671 32.0805 47.5295 31.4957C47.1919 30.911 46.8454 30.3414 46.4917 29.7886C47.5756 29.9246 48.606 30.1031 49.5691 30.3182Z" fill="white"/>
<path d="M41.4599 38.0569C43.1482 38.0569 44.5169 36.6882 44.5169 34.9999C44.5169 33.3117 43.1482 31.943 41.4599 31.943C39.7717 31.943 38.403 33.3117 38.403 34.9999C38.403 36.6882 39.7717 38.0569 41.4599 38.0569Z" fill="#E481FD"/>
</svg>
